<svg xmlns="http://www.w3.org/2000/svg" xmlns:xlink="http://www.w3.org/1999/xlink" width="500" zoomAndPan="magnify" viewBox="0 0 375 374.999991" height="500" preserveAspectRatio="xMidYMid meet" version="1.0"><defs><clipPath id="id1"><path d="M 112.5 116 L 262.5 116 L 262.5 258 L 112.5 258 Z M 112.5 116 " clip-rule="nonzero"/></clipPath></defs><g clip-path="url(#id1)"><path fill="#000000" d="M 262.449219 241.621094 C 262.234375 241.339844 260.65625 240.464844 260.035156 240.464844 C 259.410156 240.464844 257.378906 241.796875 256.984375 242.078125 C 256.601562 242.355469 255.625 242.8125 255.304688 242.851562 C 254.988281 242.875 252.191406 243.015625 251.570312 243.015625 C 250.933594 243.015625 249.992188 242.851562 249.574219 242.875 C 249.15625 242.914062 248.316406 242.914062 248.136719 242.914062 C 247.960938 242.914062 247.894531 242.636719 248.136719 242.355469 C 248.378906 242.078125 248.796875 241.316406 249.21875 240.746094 C 249.636719 240.1875 250.335938 239.742188 250.753906 239.527344 C 251.175781 239.308594 251.847656 239.03125 251.914062 238.75 C 251.988281 238.472656 250.871094 238.472656 250.195312 238.6875 C 249.535156 238.890625 248.59375 239.84375 248.339844 240.121094 C 248.097656 240.402344 247.894531 240.441406 247.679688 240.402344 C 247.476562 240.363281 247.058594 240.746094 246.878906 240.882812 C 246.703125 241.023438 246.242188 241.339844 245.824219 241.339844 C 245.40625 241.339844 244.882812 240.882812 244.667969 240.707031 C 244.464844 240.542969 244.042969 240.402344 243.765625 240.425781 C 243.484375 240.464844 242.925781 240.289062 242.53125 239.984375 C 242.152344 239.664062 242.050781 239.347656 242.152344 239.171875 C 242.253906 239.003906 242.46875 238.546875 242.53125 238.332031 C 242.609375 238.128906 242.328125 238.015625 242.074219 237.875 C 241.832031 237.734375 239.660156 236.414062 238.019531 234.84375 C 236.585938 233.585938 233.992188 231.730469 232.796875 230.753906 C 231.882812 229.992188 226.886719 226.132812 223.808594 224.179688 C 220.722656 222.222656 217.964844 220.257812 216.84375 220.09375 C 215.714844 219.914062 215.433594 219.8125 215.15625 219.457031 C 214.875 219.113281 210.503906 215.054688 208.023438 213.695312 C 205.53125 212.335938 200.523438 209.949219 200.285156 209.746094 C 200.742188 208.933594 200.84375 208.035156 200.628906 207.222656 C 200.421875 206.421875 198.746094 205.203125 198.074219 204.746094 C 197.410156 204.289062 196.953125 204.109375 196.953125 204.109375 C 196.953125 204.109375 195.875 201.699219 195.773438 201.34375 C 196.089844 200.0625 196.929688 195.921875 196.75 190.441406 C 196.574219 184.957031 196.152344 184.144531 195.554688 183 C 194.957031 181.847656 194.09375 180.691406 193.457031 178.140625 C 192.835938 175.589844 192.65625 173.277344 192.976562 172.261719 C 193.28125 171.246094 194.121094 169.46875 194.679688 167.414062 C 195.238281 165.34375 194.894531 163.808594 194.957031 163.109375 C 195.035156 162.414062 195.554688 161.714844 195.671875 159.886719 C 195.773438 158.070312 196.433594 157.96875 196.929688 155.34375 C 197.410156 152.726562 197.652344 151.152344 197.652344 151.152344 C 197.652344 151.152344 198.53125 151.015625 198.707031 150.238281 C 198.886719 149.464844 198.925781 148.84375 199.128906 147.625 C 199.34375 146.394531 199.40625 144.996094 199.445312 144.71875 C 199.484375 144.4375 199.203125 143.980469 199.203125 143.980469 C 199.203125 143.980469 199.546875 138.980469 199.648438 137.761719 C 199.761719 136.53125 200.144531 135.628906 200.144531 135.132812 C 200.144531 134.652344 200.183594 134.257812 199.621094 133.394531 C 199.738281 133.117188 199.851562 132.9375 199.953125 132.8125 C 200.054688 132.824219 200.144531 132.824219 200.234375 132.824219 C 204.679688 132.824219 208.304688 129.230469 208.304688 124.777344 C 208.304688 120.332031 204.679688 116.730469 200.234375 116.730469 C 195.785156 116.730469 192.175781 120.332031 192.175781 124.777344 C 192.175781 126.121094 192.503906 127.378906 193.089844 128.496094 C 193.203125 128.953125 193.371094 129.523438 193.484375 129.714844 C 193.699219 130.070312 193.980469 130.375 194.082031 130.769531 C 194.195312 131.148438 194.71875 132.0625 194.894531 132.378906 C 195.058594 132.683594 195.339844 133.421875 195.339844 133.699219 C 195.339844 133.980469 195.59375 134.511719 195.734375 134.855469 C 195.875 135.210938 195.835938 135.933594 195.65625 136.785156 C 195.480469 137.621094 194.613281 141.8125 194.335938 142.6875 C 193.777344 143.042969 193.597656 143.460938 193.523438 143.84375 C 193.457031 144.222656 193.039062 146.011719 192.757812 146.671875 C 192.480469 147.332031 192.367188 148.527344 192.339844 148.882812 C 192.300781 149.222656 192.265625 150.023438 192.023438 150.203125 C 191.742188 150.621094 191.5 151.320312 191.246094 151.710938 C 191.003906 152.09375 190.828125 153.425781 190.890625 153.984375 C 190.96875 154.542969 190.867188 155.734375 190.585938 156.078125 C 190.191406 156.917969 190.128906 157.894531 189.914062 158.390625 C 189.710938 158.871094 189.011719 161.421875 188.910156 161.941406 C 188.792969 162.476562 187.777344 163.277344 187.332031 163.734375 C 186.875 164.191406 186.035156 165.445312 185.820312 165.800781 C 185.757812 165.066406 185.617188 165.066406 185.476562 164.824219 C 185.335938 164.570312 184.890625 164.457031 184.789062 164.355469 C 184.6875 164.253906 184.957031 163.9375 184.992188 163.59375 C 185.019531 163.238281 184.980469 162.855469 184.207031 162.617188 C 183.441406 162.375 183.175781 162.324219 182.894531 162.042969 C 182.617188 161.765625 181.828125 161.535156 181.5625 161.167969 C 180.824219 160.332031 179.628906 159.253906 177.292969 159.175781 C 177.292969 159.175781 175.601562 159.152344 174.277344 160.039062 C 173.046875 160.851562 170.847656 162.449219 170.390625 165.738281 C 169.933594 169.027344 172.90625 171.121094 173.148438 171.324219 C 173.402344 171.539062 174.101562 171.957031 173.605469 172.582031 C 173.363281 172.796875 173.300781 173.175781 173.261719 173.394531 C 173.222656 173.59375 172.804688 174.152344 172.421875 174.507812 C 172.042969 174.851562 171.203125 175.726562 171.203125 175.726562 C 171.203125 175.726562 169.207031 175.828125 167.976562 177.542969 C 167.453125 178.179688 167.210938 179.054688 166.855469 179.574219 C 166.5 180.109375 165.28125 182.304688 164.9375 182.964844 C 164.582031 183.636719 164.339844 184.539062 163.324219 185.453125 C 162.96875 186.046875 162.167969 186.644531 161.46875 189.335938 C 161.46875 189.335938 158.695312 192.726562 157.71875 194.324219 C 156.738281 195.9375 155.199219 198.730469 155.097656 199.121094 C 154.996094 199.503906 154.222656 200.863281 154.007812 201.394531 C 153.804688 201.914062 153.726562 202.398438 153.484375 202.675781 C 153.242188 202.957031 152.367188 204.226562 151.589844 204.886719 C 150.828125 205.558594 150.574219 205.9375 150.371094 206.257812 C 150.167969 206.5625 149.851562 207.019531 148.554688 207.652344 C 147.257812 208.273438 146.558594 208.910156 144.625 209.113281 C 142.707031 209.328125 141.652344 209.148438 141.511719 209.847656 C 141.371094 210.546875 144.742188 210.6875 145.859375 210.519531 C 147.320312 210.34375 148.199219 209.570312 148.375 209.746094 C 148.554688 209.925781 147.957031 210.902344 146.699219 211.28125 C 145.441406 211.664062 145.644531 212.058594 145.644531 212.261719 C 145.644531 212.476562 146.378906 212.71875 147.535156 212.398438 C 148.695312 212.082031 150.753906 211.09375 150.929688 211.308594 C 151.109375 211.523438 150.472656 212.375 150.269531 212.71875 C 150.054688 213.074219 150.371094 213.453125 150.6875 213.492188 C 150.992188 213.515625 151.808594 213.414062 152.429688 212.234375 C 153.066406 211.042969 153.941406 210.484375 154.183594 210.484375 C 154.425781 210.484375 155.519531 211.675781 156.257812 211.957031 C 156.980469 212.234375 158.59375 212.234375 158.773438 211.421875 C 158.949219 210.621094 157.792969 210.585938 157.515625 210.585938 C 157.234375 210.585938 156.574219 209.960938 156.535156 209.605469 C 156.496094 209.265625 156.714844 208.148438 156.597656 207.652344 C 156.496094 207.15625 156.851562 205.417969 157.3125 204.300781 C 157.753906 203.183594 159.292969 200.519531 160.386719 199.859375 C 161.46875 199.199219 165.179688 196.507812 166.335938 194.097656 C 167.492188 191.683594 167.949219 190.453125 168.332031 190.273438 C 168.710938 190.097656 169.347656 190.070312 169.867188 189.335938 C 170.390625 188.597656 170.566406 188.039062 170.988281 188.039062 C 171.40625 188.039062 171.367188 187.863281 172.5625 189.613281 C 173.757812 191.367188 174.242188 191.683594 174.355469 191.925781 C 174.457031 192.167969 174.125 192.648438 174.496094 193.359375 C 174.976562 194.296875 175.675781 194.515625 175.675781 194.996094 C 175.675781 195.492188 175.816406 196.394531 176.070312 197.027344 C 176.3125 197.664062 176.78125 198.664062 176.515625 199.097656 C 176.171875 199.65625 175.332031 200.660156 175.15625 201.015625 C 174.101562 201.152344 172.601562 201.609375 172.359375 203.820312 C 172.117188 205.886719 172.421875 207.867188 172.320312 208.324219 C 172.21875 208.78125 170.847656 210.140625 170.324219 210.355469 C 169.804688 210.558594 168.570312 210.738281 168.152344 211.359375 C 167.734375 211.992188 167.632812 212.515625 166.816406 212.972656 C 166.042969 213.414062 160.945312 217.78125 157.5 222.859375 C 157.386719 223.035156 157.070312 223.164062 156.6875 223.289062 C 155.1875 223.542969 154.605469 224.015625 154.324219 224.152344 C 154.082031 224.28125 153.433594 224.902344 152.796875 225.625 C 152.558594 225.996094 152.203125 226.082031 152.085938 226.210938 C 150.753906 226.707031 145.960938 229.15625 143.089844 231.148438 C 140.214844 233.140625 134.902344 237.722656 133.007812 240.058594 C 131.777344 241.53125 131.636719 241.492188 131.332031 241.632812 C 131.011719 241.773438 131.152344 242.472656 131.253906 242.824219 C 131.253906 242.824219 130.695312 243.585938 130.339844 243.664062 C 129.996094 243.726562 129.679688 243.027344 129.222656 242.992188 C 128.765625 242.964844 128.28125 243.90625 128.140625 244.144531 C 128 244.386719 127.785156 244.84375 127.480469 244.921875 C 127.164062 244.984375 126.601562 244.566406 126.539062 243.6875 C 126.464844 242.824219 125.902344 241.988281 125.726562 241.914062 C 125.308594 241.914062 125.066406 242.574219 125.066406 242.824219 C 125.066406 243.066406 125.308594 243.726562 125.523438 244.007812 C 125.726562 244.285156 125.585938 244.667969 125.585938 244.957031 C 125.585938 245.238281 125.941406 245.515625 125.96875 245.617188 C 126.003906 245.71875 126.144531 246.496094 125.867188 246.417969 C 125.585938 246.355469 124.988281 246.378906 124.570312 246.660156 C 124.148438 246.9375 123.933594 247.292969 123.933594 247.535156 C 123.933594 247.777344 124.113281 248.308594 123.273438 248.488281 C 122.257812 248.832031 121.457031 248.96875 120.933594 249.148438 C 120.402344 249.324219 119.179688 250.023438 118.699219 250.085938 C 118.203125 250.164062 117.882812 250.125 117.464844 250.164062 C 117.046875 250.199219 116.664062 250.402344 116.246094 250.402344 C 115.824219 250.402344 114.605469 251.0625 113.929688 251.417969 C 113.269531 251.773438 112.496094 252.917969 112.992188 253.972656 C 113.472656 255.023438 114.882812 256.382812 115.34375 256.878906 C 115.785156 257.359375 116.460938 257.777344 117.921875 257.957031 C 119.398438 258.132812 120.234375 257.613281 120.972656 257.15625 C 121.710938 256.699219 123.324219 256.460938 123.945312 256.597656 C 124.582031 256.738281 125.878906 257.195312 126.921875 256.421875 C 128.253906 255.519531 127.835938 254.921875 128.21875 254.667969 C 128.574219 254.667969 128.714844 254.503906 129.03125 253.972656 C 129.335938 253.449219 129.730469 252.992188 130.289062 252.890625 C 130.847656 252.789062 131.371094 252.117188 131.726562 251.394531 C 132.070312 250.65625 132.769531 249.921875 133.125 249.78125 C 133.464844 249.644531 133.683594 249.324219 133.785156 249.046875 C 133.886719 248.765625 134.558594 248.527344 134.941406 248.207031 C 135.324219 247.890625 135.640625 247.714844 135.816406 247.851562 C 135.984375 247.992188 136.300781 247.714844 136.695312 247.433594 C 137.558594 247.015625 137.980469 246.277344 138.257812 246.457031 C 138.539062 246.632812 139.515625 246.875 139.910156 246.53125 C 140.292969 246.175781 145.402344 242.050781 147.21875 240.695312 C 148.453125 239.855469 149.355469 239.539062 151.78125 238.140625 C 153.714844 237.011719 156.714844 235.03125 157.375 234.574219 C 158.046875 234.117188 161.085938 231.769531 161.46875 231.503906 C 162.320312 230.90625 163.183594 230.816406 166.234375 229.257812 C 168.507812 228.101562 173.273438 225.691406 177.394531 223.074219 C 179.503906 221.820312 183.074219 219.992188 183.519531 219.964844 C 183.976562 219.925781 185.234375 220.867188 186.570312 221.363281 C 188.195312 221.957031 189.265625 222.097656 191.578125 222.859375 C 193.878906 223.632812 200.117188 226.25 201.617188 226.84375 C 203.132812 227.441406 205.191406 228.214844 207.808594 228.355469 C 209.28125 228.636719 209.980469 228.839844 210.476562 228.953125 C 210.960938 229.054688 211.339844 229.015625 211.835938 229.230469 C 212.320312 229.433594 213.757812 230.386719 214.632812 230.804688 C 215.511719 231.222656 218.625 233.28125 219.4375 233.878906 C 220.238281 234.472656 223.988281 237.34375 224.828125 237.902344 C 225.664062 238.460938 226.503906 239.121094 227.140625 239.195312 C 227.761719 239.257812 228.539062 239.679688 229.378906 240.339844 C 230.214844 241.011719 232.171875 242.371094 232.734375 242.789062 C 233.292969 243.207031 234.066406 243.941406 235.148438 244.019531 C 236.242188 244.082031 236.761719 244.335938 237.460938 244.957031 C 238.160156 245.59375 239.214844 246.988281 239.699219 247.269531 C 240.195312 247.546875 240.753906 248.003906 240.957031 248.425781 C 241.171875 248.84375 242.46875 250.441406 242.953125 250.796875 C 243.449219 251.152344 243.652344 251.457031 243.828125 252.027344 C 244.007812 252.585938 244.730469 254.046875 245.125 254.644531 C 245.507812 255.242188 245.683594 255.835938 246.804688 255.0625 C 248.238281 254.125 249.394531 252.753906 251.214844 251.570312 C 253.042969 250.378906 254.085938 249.71875 255.484375 248.765625 C 256.894531 247.828125 260.289062 244.476562 261.265625 243.421875 C 262.234375 242.355469 262.652344 241.898438 262.449219 241.621094 Z M 262.449219 241.621094 " fill-opacity="1" fill-rule="nonzero"/></g></svg>