<svg xmlns="http://www.w3.org/2000/svg" xmlns:xlink="http://www.w3.org/1999/xlink" width="500" zoomAndPan="magnify" viewBox="0 0 375 374.999991" height="500" preserveAspectRatio="xMidYMid meet" version="1.0"><defs><clipPath id="id1"><path d="M 23.378906 31.09375 L 351.878906 31.09375 L 351.878906 326.59375 L 23.378906 326.59375 Z M 23.378906 31.09375 " clip-rule="nonzero"/></clipPath></defs><g clip-path="url(#id1)"><path fill="#5288ff" d="M 144.679688 31.386719 C 144.144531 31.386719 143.609375 31.414062 143.074219 31.46875 C 142.539062 31.519531 142.007812 31.597656 141.480469 31.703125 C 140.957031 31.808594 140.433594 31.9375 139.921875 32.09375 C 139.40625 32.25 138.902344 32.429688 138.40625 32.636719 C 137.910156 32.839844 137.425781 33.070312 136.953125 33.324219 C 136.480469 33.574219 136.019531 33.851562 135.574219 34.148438 C 135.125 34.449219 134.695312 34.765625 134.28125 35.105469 C 133.867188 35.449219 133.46875 35.808594 133.089844 36.1875 C 132.710938 36.566406 132.347656 36.964844 132.007812 37.378906 C 131.667969 37.792969 131.347656 38.222656 131.050781 38.667969 C 130.753906 39.117188 130.476562 39.574219 130.222656 40.050781 C 129.96875 40.523438 129.742188 41.007812 129.535156 41.503906 C 129.332031 42 129.148438 42.503906 128.992188 43.015625 C 128.839844 43.53125 128.707031 44.050781 128.601562 44.574219 C 128.5 45.101562 128.417969 45.632812 128.367188 46.167969 C 128.3125 46.699219 128.289062 47.234375 128.289062 47.773438 C 128.289062 48.308594 128.3125 48.84375 128.367188 49.378906 C 128.417969 49.910156 128.5 50.441406 128.601562 50.96875 C 128.707031 51.496094 128.839844 52.015625 128.992188 52.527344 C 129.148438 53.042969 129.332031 53.546875 129.535156 54.042969 C 129.742188 54.539062 129.96875 55.023438 130.222656 55.496094 C 130.476562 55.96875 130.753906 56.429688 131.050781 56.875 C 131.347656 57.320312 131.667969 57.75 132.007812 58.164062 C 132.347656 58.582031 132.710938 58.976562 133.089844 59.355469 C 133.46875 59.738281 133.867188 60.097656 134.28125 60.4375 C 134.695312 60.777344 135.125 61.097656 135.574219 61.394531 C 136.019531 61.691406 136.480469 61.96875 136.953125 62.222656 C 137.425781 62.472656 137.910156 62.703125 138.40625 62.910156 C 138.902344 63.113281 139.40625 63.292969 139.921875 63.449219 C 140.433594 63.605469 140.957031 63.738281 141.480469 63.839844 C 142.007812 63.945312 142.539062 64.023438 143.074219 64.078125 C 143.609375 64.128906 144.144531 64.15625 144.679688 64.15625 C 145.21875 64.15625 145.753906 64.128906 146.285156 64.078125 C 146.820312 64.023438 147.351562 63.945312 147.878906 63.839844 C 148.40625 63.738281 148.925781 63.605469 149.4375 63.449219 C 149.953125 63.292969 150.457031 63.113281 150.953125 62.910156 C 151.449219 62.703125 151.933594 62.472656 152.40625 62.222656 C 152.882812 61.96875 153.339844 61.691406 153.789062 61.394531 C 154.234375 61.097656 154.664062 60.777344 155.078125 60.4375 C 155.496094 60.097656 155.890625 59.738281 156.269531 59.355469 C 156.652344 58.976562 157.011719 58.582031 157.351562 58.164062 C 157.691406 57.75 158.011719 57.320312 158.308594 56.875 C 158.609375 56.429688 158.882812 55.96875 159.136719 55.496094 C 159.390625 55.023438 159.621094 54.539062 159.824219 54.042969 C 160.03125 53.546875 160.210938 53.042969 160.367188 52.527344 C 160.523438 52.015625 160.652344 51.496094 160.757812 50.96875 C 160.863281 50.441406 160.941406 49.910156 160.992188 49.378906 C 161.046875 48.84375 161.074219 48.308594 161.074219 47.773438 C 161.074219 47.234375 161.046875 46.699219 160.992188 46.167969 C 160.941406 45.632812 160.863281 45.101562 160.757812 44.574219 C 160.652344 44.050781 160.523438 43.53125 160.367188 43.015625 C 160.210938 42.503906 160.03125 42 159.824219 41.503906 C 159.621094 41.007812 159.390625 40.523438 159.136719 40.050781 C 158.882812 39.574219 158.609375 39.117188 158.308594 38.667969 C 158.011719 38.222656 157.691406 37.792969 157.351562 37.378906 C 157.011719 36.964844 156.652344 36.566406 156.269531 36.1875 C 155.890625 35.808594 155.496094 35.449219 155.078125 35.105469 C 154.664062 34.765625 154.234375 34.449219 153.789062 34.148438 C 153.339844 33.851562 152.882812 33.574219 152.40625 33.324219 C 151.933594 33.070312 151.449219 32.839844 150.953125 32.636719 C 150.457031 32.429688 149.953125 32.25 149.4375 32.09375 C 148.925781 31.9375 148.40625 31.808594 147.878906 31.703125 C 147.351562 31.597656 146.820312 31.519531 146.285156 31.46875 C 145.753906 31.414062 145.21875 31.386719 144.679688 31.386719 Z M 229.917969 31.386719 C 229.382812 31.386719 228.847656 31.414062 228.3125 31.46875 C 227.777344 31.519531 227.25 31.597656 226.722656 31.703125 C 226.195312 31.808594 225.675781 31.9375 225.160156 32.09375 C 224.648438 32.25 224.144531 32.429688 223.648438 32.636719 C 223.152344 32.839844 222.664062 33.070312 222.191406 33.324219 C 221.71875 33.574219 221.257812 33.851562 220.8125 34.148438 C 220.367188 34.449219 219.9375 34.765625 219.519531 35.105469 C 219.105469 35.449219 218.707031 35.808594 218.328125 36.1875 C 217.949219 36.566406 217.589844 36.964844 217.25 37.378906 C 216.90625 37.792969 216.589844 38.222656 216.289062 38.667969 C 215.992188 39.117188 215.714844 39.574219 215.464844 40.050781 C 215.210938 40.523438 214.980469 41.007812 214.773438 41.503906 C 214.570312 42 214.390625 42.503906 214.234375 43.015625 C 214.078125 43.53125 213.945312 44.050781 213.84375 44.574219 C 213.738281 45.101562 213.660156 45.632812 213.605469 46.167969 C 213.554688 46.699219 213.527344 47.234375 213.527344 47.773438 C 213.527344 48.308594 213.554688 48.84375 213.605469 49.378906 C 213.660156 49.910156 213.738281 50.441406 213.84375 50.96875 C 213.945312 51.496094 214.078125 52.015625 214.234375 52.527344 C 214.390625 53.042969 214.570312 53.546875 214.773438 54.042969 C 214.980469 54.539062 215.210938 55.023438 215.464844 55.496094 C 215.714844 55.96875 215.992188 56.429688 216.289062 56.875 C 216.589844 57.320312 216.90625 57.75 217.25 58.164062 C 217.589844 58.582031 217.949219 58.976562 218.328125 59.355469 C 218.707031 59.738281 219.105469 60.097656 219.519531 60.4375 C 219.9375 60.777344 220.367188 61.097656 220.8125 61.394531 C 221.257812 61.691406 221.71875 61.96875 222.191406 62.222656 C 222.664062 62.472656 223.152344 62.703125 223.648438 62.910156 C 224.144531 63.113281 224.648438 63.292969 225.160156 63.449219 C 225.675781 63.605469 226.195312 63.738281 226.722656 63.839844 C 227.25 63.945312 227.777344 64.023438 228.3125 64.078125 C 228.847656 64.128906 229.382812 64.15625 229.917969 64.15625 C 230.457031 64.15625 230.992188 64.128906 231.527344 64.078125 C 232.0625 64.023438 232.589844 63.945312 233.117188 63.839844 C 233.644531 63.738281 234.164062 63.605469 234.679688 63.449219 C 235.191406 63.292969 235.695312 63.113281 236.191406 62.910156 C 236.6875 62.703125 237.171875 62.472656 237.648438 62.222656 C 238.121094 61.96875 238.582031 61.691406 239.027344 61.394531 C 239.472656 61.097656 239.902344 60.777344 240.320312 60.4375 C 240.734375 60.097656 241.132812 59.738281 241.511719 59.355469 C 241.890625 58.976562 242.25 58.582031 242.589844 58.164062 C 242.933594 57.75 243.25 57.320312 243.550781 56.875 C 243.847656 56.429688 244.125 55.96875 244.375 55.496094 C 244.628906 55.023438 244.859375 54.539062 245.0625 54.042969 C 245.269531 53.546875 245.449219 53.042969 245.605469 52.527344 C 245.761719 52.015625 245.890625 51.496094 245.996094 50.96875 C 246.101562 50.441406 246.179688 49.910156 246.234375 49.378906 C 246.285156 48.84375 246.3125 48.308594 246.3125 47.773438 C 246.3125 47.234375 246.285156 46.699219 246.234375 46.167969 C 246.179688 45.632812 246.101562 45.101562 245.996094 44.574219 C 245.890625 44.050781 245.761719 43.53125 245.605469 43.015625 C 245.449219 42.503906 245.269531 42 245.0625 41.503906 C 244.859375 41.007812 244.628906 40.523438 244.375 40.050781 C 244.125 39.574219 243.847656 39.117188 243.550781 38.667969 C 243.25 38.222656 242.929688 37.792969 242.589844 37.378906 C 242.25 36.964844 241.890625 36.566406 241.511719 36.1875 C 241.132812 35.808594 240.734375 35.449219 240.320312 35.105469 C 239.902344 34.765625 239.472656 34.449219 239.027344 34.148438 C 238.582031 33.851562 238.121094 33.574219 237.648438 33.324219 C 237.171875 33.070312 236.6875 32.839844 236.191406 32.636719 C 235.695312 32.429688 235.191406 32.25 234.679688 32.09375 C 234.164062 31.9375 233.644531 31.808594 233.117188 31.703125 C 232.589844 31.597656 232.0625 31.519531 231.527344 31.46875 C 230.992188 31.414062 230.457031 31.386719 229.917969 31.386719 Z M 246.476562 90.191406 C 245.355469 90.183594 244.300781 90.445312 243.3125 90.980469 C 242.324219 91.515625 241.527344 92.253906 240.921875 93.199219 C 240.921875 93.199219 219.664062 123.136719 187.300781 123.136719 C 154.933594 123.136719 133.679688 93.199219 133.679688 93.199219 C 133.058594 92.269531 132.25 91.546875 131.257812 91.03125 C 130.269531 90.515625 129.214844 90.269531 128.097656 90.292969 C 127.5 90.304688 126.917969 90.398438 126.347656 90.570312 C 125.773438 90.742188 125.238281 90.988281 124.734375 91.304688 C 124.230469 91.625 123.777344 92.003906 123.378906 92.445312 C 122.976562 92.886719 122.644531 93.375 122.375 93.90625 C 122.109375 94.4375 121.917969 94.996094 121.804688 95.582031 C 121.6875 96.167969 121.652344 96.753906 121.699219 97.351562 C 121.746094 97.945312 121.871094 98.519531 122.074219 99.082031 C 122.277344 99.640625 122.550781 100.164062 122.894531 100.648438 C 122.894531 100.648438 147.042969 136.246094 187.300781 136.246094 C 227.558594 136.246094 251.703125 100.648438 251.703125 100.648438 C 252.0625 100.164062 252.351562 99.636719 252.566406 99.070312 C 252.78125 98.503906 252.914062 97.921875 252.96875 97.316406 C 253.019531 96.714844 252.992188 96.117188 252.878906 95.519531 C 252.765625 94.925781 252.574219 94.359375 252.300781 93.816406 C 252.03125 93.277344 251.691406 92.78125 251.285156 92.332031 C 250.878906 91.886719 250.417969 91.5 249.902344 91.183594 C 249.390625 90.863281 248.839844 90.617188 248.257812 90.449219 C 247.675781 90.28125 247.082031 90.195312 246.476562 90.191406 Z M 102.164062 108.609375 C 101.34375 108.613281 100.554688 108.761719 99.792969 109.058594 L 60.453125 123.546875 C 59.464844 123.863281 58.601562 124.386719 57.863281 125.109375 C 57.125 125.835938 56.585938 126.6875 56.25 127.667969 L 24.375 178.652344 C 24.121094 179.0625 23.910156 179.5 23.75 179.960938 C 23.589844 180.417969 23.484375 180.890625 23.425781 181.375 C 23.371094 181.855469 23.371094 182.339844 23.421875 182.824219 C 23.476562 183.308594 23.582031 183.777344 23.738281 184.238281 C 23.894531 184.699219 24.101562 185.136719 24.355469 185.550781 C 24.613281 185.964844 24.910156 186.347656 25.25 186.695312 C 25.589844 187.042969 25.964844 187.347656 26.371094 187.613281 C 26.777344 187.878906 27.210938 188.09375 27.667969 188.265625 L 56.164062 198.761719 L 56.164062 273.871094 C 56.164062 274.539062 56.265625 275.195312 56.464844 275.832031 C 56.667969 276.472656 56.957031 277.066406 57.34375 277.613281 C 57.726562 278.164062 58.183594 278.644531 58.714844 279.050781 C 59.242188 279.460938 59.824219 279.78125 60.453125 280.015625 L 185.035156 325.890625 C 186.542969 326.445312 188.054688 326.445312 189.566406 325.890625 L 314.148438 280.015625 C 314.777344 279.78125 315.355469 279.460938 315.886719 279.050781 C 316.417969 278.644531 316.875 278.164062 317.257812 277.613281 C 317.640625 277.066406 317.933594 276.472656 318.136719 275.832031 C 318.335938 275.195312 318.4375 274.539062 318.4375 273.871094 L 318.4375 198.761719 L 346.933594 188.265625 C 347.386719 188.09375 347.820312 187.878906 348.230469 187.613281 C 348.636719 187.347656 349.011719 187.042969 349.351562 186.695312 C 349.691406 186.347656 349.988281 185.964844 350.242188 185.550781 C 350.496094 185.136719 350.703125 184.699219 350.863281 184.238281 C 351.019531 183.777344 351.125 183.308594 351.175781 182.824219 C 351.230469 182.339844 351.226562 181.855469 351.171875 181.375 C 351.117188 180.890625 351.007812 180.417969 350.847656 179.960938 C 350.6875 179.5 350.480469 179.0625 350.222656 178.652344 L 318.335938 127.644531 C 318 126.671875 317.460938 125.824219 316.722656 125.101562 C 315.988281 124.382812 315.128906 123.863281 314.148438 123.546875 C 314.0625 123.515625 313.976562 123.484375 313.890625 123.457031 L 274.804688 109.058594 C 273.976562 108.738281 273.121094 108.59375 272.230469 108.621094 C 271.46875 108.652344 270.734375 108.808594 270.027344 109.089844 C 269.320312 109.375 268.683594 109.769531 268.113281 110.277344 C 267.542969 110.785156 267.078125 111.371094 266.714844 112.042969 C 266.351562 112.710938 266.109375 113.421875 265.992188 114.175781 C 265.878906 114.929688 265.894531 115.679688 266.039062 116.425781 C 266.183594 117.175781 266.453125 117.875 266.84375 118.53125 C 267.234375 119.183594 267.722656 119.753906 268.3125 120.238281 C 268.902344 120.71875 269.554688 121.089844 270.273438 121.347656 L 292.925781 129.691406 L 187.300781 168.589844 L 81.671875 129.691406 L 104.328125 121.347656 C 105.054688 121.089844 105.71875 120.714844 106.316406 120.222656 C 106.914062 119.734375 107.40625 119.15625 107.800781 118.488281 C 108.191406 117.824219 108.457031 117.109375 108.597656 116.347656 C 108.738281 115.589844 108.742188 114.828125 108.613281 114.066406 C 108.484375 113.304688 108.226562 112.589844 107.84375 111.917969 C 107.460938 111.246094 106.976562 110.660156 106.382812 110.160156 C 105.792969 109.664062 105.136719 109.28125 104.410156 109.011719 C 103.683594 108.746094 102.9375 108.613281 102.164062 108.609375 Z M 65.460938 137.679688 L 177.476562 178.921875 L 177.476562 178.933594 L 151.789062 220.007812 L 39.757812 178.765625 Z M 309.140625 137.679688 L 334.84375 178.765625 L 222.8125 220.007812 L 197.136719 178.933594 Z M 180.742188 198.402344 L 180.742188 310.335938 L 69.277344 269.300781 L 69.277344 203.585938 L 152.25 234.140625 C 152.957031 234.398438 153.683594 234.535156 154.4375 234.542969 C 155.191406 234.550781 155.921875 234.433594 156.636719 234.191406 C 157.347656 233.945312 158 233.589844 158.589844 233.121094 C 159.179688 232.65625 159.675781 232.101562 160.074219 231.464844 Z M 193.855469 198.402344 L 214.527344 231.464844 C 214.925781 232.101562 215.421875 232.65625 216.011719 233.121094 C 216.601562 233.589844 217.25 233.945312 217.964844 234.191406 C 218.675781 234.433594 219.410156 234.550781 220.160156 234.542969 C 220.914062 234.535156 221.644531 234.398438 222.351562 234.140625 L 305.324219 203.585938 L 305.324219 269.300781 L 193.855469 310.335938 Z M 193.855469 198.402344 " fill-opacity="1" fill-rule="nonzero"/></g></svg>