<svg xmlns="http://www.w3.org/2000/svg" xmlns:xlink="http://www.w3.org/1999/xlink" width="500" zoomAndPan="magnify" viewBox="0 0 375 374.999991" height="500" preserveAspectRatio="xMidYMid meet" version="1.0"><defs><clipPath id="ee94c84de8"><path d="M 112.5 182 L 262.5 182 L 262.5 253 L 112.5 253 Z M 112.5 182 " clip-rule="nonzero"/></clipPath></defs><path fill="#ffffff" d="M 158.265625 126.871094 C 157.527344 130.578125 158.019531 134.726562 158.019531 138.53125 C 158.070312 142.53125 158.21875 146.4375 158.5625 150.386719 C 158.910156 154.191406 165.367188 154.734375 166.15625 150.929688 C 167.089844 146.632812 167.535156 142.632812 167.4375 138.285156 C 167.289062 134.035156 167.140625 129.441406 165.515625 125.488281 C 164.875 123.957031 162.902344 123.117188 161.375 123.414062 C 159.597656 123.761719 158.613281 125.191406 158.265625 126.871094 Z M 158.265625 126.871094 " fill-opacity="1" fill-rule="nonzero"/><path fill="#ffffff" d="M 211.851562 125.589844 C 210.375 128.550781 210.964844 132.949219 211.113281 136.210938 C 211.261719 140.011719 211.703125 143.519531 212.691406 147.175781 C 214.019531 152.167969 220.332031 151.425781 221.316406 146.683594 C 222.15625 142.730469 222.203125 139.125 221.761719 135.121094 C 221.367188 131.515625 221.019531 127.21875 218.703125 124.253906 C 216.632812 121.636719 213.085938 123.070312 211.851562 125.589844 Z M 211.851562 125.589844 " fill-opacity="1" fill-rule="nonzero"/><g clip-path="url(#ee94c84de8)"><path fill="#ffffff" d="M 116.710938 251.808594 C 120.113281 246.96875 122.230469 241.1875 125.4375 236.148438 C 128.640625 231.058594 132.238281 226.121094 136.183594 221.574219 C 143.773438 212.878906 152.992188 205.421875 163.148438 199.988281 C 175.078125 193.613281 188.484375 189.808594 202.042969 191.933594 C 213.921875 193.8125 225.0625 200.183594 233.394531 208.78125 C 238.375 213.917969 242.464844 219.746094 245.769531 226.121094 C 249.121094 232.640625 251.4375 239.507812 254.199219 246.277344 C 256.070312 250.871094 262.480469 248.003906 261.984375 243.609375 C 260.507812 229.726562 252.816406 215.941406 243.746094 205.617188 C 234.675781 195.246094 222.449219 187.191406 209.042969 183.882812 C 181.140625 176.964844 151.957031 191.539062 133.324219 211.941406 C 128.296875 217.425781 123.761719 223.304688 120.261719 229.875 C 116.910156 236.050781 112.964844 243.261719 112.621094 250.375 C 112.519531 252.597656 115.429688 253.636719 116.710938 251.808594 Z M 116.710938 251.808594 " fill-opacity="1" fill-rule="nonzero"/></g></svg>